<?xml version="1.0" encoding="utf-8"?>
<!-- Generator: Adobe Illustrator 27.7.0, SVG Export Plug-In . SVG Version: 6.00 Build 0)  -->
<svg version="1.1" id="Layer_1" xmlns="http://www.w3.org/2000/svg" xmlns:xlink="http://www.w3.org/1999/xlink" x="0px" y="0px"
	 viewBox="0 0 800 800" style="enable-background:new 0 0 800 800;" xml:space="preserve">
<style type="text/css">
	.st0{fill:#C4A7E7;}
</style>
<path class="st0" d="M738.1,399.4c4.8-10.9,9.7-21.8,14.1-31.8c25.3-56.8,25.2-57.2,23.8-63.2c-19.5-80.1-102.1-117.7-122.9-126.1
	c-11-25.8-31.5-55.1-69.7-77.1c-63.2-36.4-87.6-90.9-87.8-91.4c-1.7-4-5.4-6.9-9.7-7.6C484.3,2,451-3.5,411.9,3.7
	c-34.1,6.3-62.1,20.4-82.8,41.3c-22.3-18-52.5-24.6-74-26.9c-21.4-2.3-42.3-1.3-47.4,0.4c-4.2,1.4-7.6,5-8.6,9.4
	c-3.1,13.1-12.8,27.9-22.1,42.2c-14.8,22.6-30.1,46-26.7,71c-52.5,27.7-108.2,80.1-116.6,88c-1.5,1.4-2.6,3.2-3.3,5.2
	c-0.4,1.3-10.7,31.6-16,71.9c-7.2,55.2-1.6,100.6,16.6,135c0.5,1,1.1,2,1.7,3c-16.6,30.4-10.2,58.1-4.5,82.6
	c4.4,19.1,8.2,35.5,2,52.1c-1.4,3.8-1,8.1,1.2,11.5c4.6,7.4,65.1,50.6,128.8,57.3c1.1,4.3,2.4,8.7,4.2,13
	c14.5,35.3,49.6,63.4,104.4,83.6c28,10.3,47.8,20.2,65.3,28.8c21.6,10.7,40.3,20,64.8,24.8c6.8,1.3,13.8,2,20.8,2
	c33.2,0,68.4-14.7,101.1-42.5c6.5-5.6,15.9-11,25.8-16.8c34-19.9,80.5-47,77.8-116.4c6-3.3,11.8-6.8,17.5-10.7
	c0.8,0.9,1.8,1.6,2.9,2.2c5.2,3,10.3,4.3,15.4,4.3c22.9,0,45.3-26.4,67-52.1c16.3-19.3,34.8-41.1,49.8-47.1
	c3.9-1.5,10.5-5.9,11.7-17.7C791.1,479,769.3,424.2,738.1,399.4L738.1,399.4z M750,307.6c-2.8,7.6-12.6,29.8-21.5,49.5
	c-13.1,29.5-24.6,55.4-32.7,75.4c-1.4-4.4-2.9-8.9-4.4-13.4c-7.2-21.9-14.7-44.6-17.6-67.1c-2.7-21.2-8.5-39.4-17.3-54.6
	c9.7-25.3,12-56.4,6.5-85.7C691.1,226.5,736.3,257.3,750,307.6z M581.7,616.4c-26.3,12.4-56,26.3-86.3,52.9
	c-39,34.3-88.4,22.5-120.6-3.9c8.7-6.3,16.9-13.9,24.4-22.8c30.4-3.8,61.5-14.7,90.9-32.3c53.4-32,94.1-82.4,111.7-138.3
	c22.7-72.1-1.5-151.1-39.7-201.5c13.6,0.3,33.8,3.4,51.2,16.2c19.1,14.1,30.8,37.2,34.9,68.7c3.2,24.9,11.1,48.8,18.7,71.9
	c11.8,35.8,22.9,69.5,12,97.1C656.2,581.4,623.3,596.9,581.7,616.4L581.7,616.4z M169.2,542.6c-11-24-24.8-39.8-36.9-53.7
	c-16.7-19.2-29.9-34.3-34.1-66.1c-9.9-73.5,36.3-144.5,84.8-173.9c13.4-8.1,26-12.4,36.3-12.8c-28.2,31.5-59.6,83.5-58.6,134.6
	c0.6,30.8,12.9,56.1,36.5,75.3c6.2,5.1,12.7,9.5,19.3,13.4c-7.4,22.9-4,56.6,9.4,87.6c11.3,26.1,39.6,72.5,102.3,90.7
	c10.5,3,21.4,5,32.6,5.9c-18.5,14-39.7,19.8-62.3,17.1C249.6,654.7,200,609.5,169.2,542.6L169.2,542.6z M237.5,127.3
	c20.9-15.8,64-37.5,118.4-5.5c39.4,23.2,77.6,32,108.3,39.1c42.3,9.7,64.7,16,73.4,41.8c5.8,17.2-5.6,28.5-10.8,32.6
	c-26.7-19.3-55.4-25.1-80.8-15.9c-13.1-12-28.6-21.7-46.3-28.4c-52.9-20.2-113.7-11-157.4,23.2c-16.1-6.8-36.4-5.2-58.1,4.7
	C185.3,187.2,210.5,147.7,237.5,127.3L237.5,127.3z M335.5,612.9c-52.6-15.2-76.3-54.2-85.8-76.1c-11.3-26.1-13.1-51.1-9.4-66.3
	c5.7,2,11.5,3.6,17.4,4.7c13.6,33.9,48.6,61.1,89.1,68.7c7.9,1.5,15.8,2.2,23.6,2.2c41.2,0,80.8-20.3,111.3-57.8
	c35.3-43.4,68.1-103,9-180.6c-3.5-25.1-12.3-47.6-25.5-66.4c23.8-2.9,45.6,13.1,57.5,24.1c44.5,41.1,77,126.6,54.3,198.8
	c-15.7,49.9-52.3,95.1-100.3,123.9C429.8,616.2,378.3,625.3,335.5,612.9L335.5,612.9z M252.4,239.5c36.4-32.2,91.9-41.9,138.1-24.3
	c18.5,7.1,46.9,23,63.3,57.5c-20.6-13.8-44.5-22.5-69.3-24.7c-32.7-2.9-63.5,6.2-84.5,24.9c-38.1,34-52.1,75.8-38.3,114.6
	c9.7,27.5,32.8,49.5,58,57.1c-26.1,9.5-65.9,14-106.2-18.8c-17.4-14.2-26.5-33-27-55.8C186,335.6,208.8,278.1,252.4,239.5
	L252.4,239.5z M344.4,424.5c-7.7-6.3-12.5-15.2-13.5-25.1s1.9-19.6,8.2-27.3c6.3-7.7,15.2-12.5,25.1-13.5c1.3-0.1,2.6-0.2,3.9-0.2
	c8.5,0,16.7,2.9,23.5,8.4c15.9,13,18.3,36.5,5.4,52.4c-6.3,7.7-15.2,12.5-25.1,13.5C361.8,433.7,352.1,430.8,344.4,424.5
	L344.4,424.5z M367.8,458.8c2.2,0,4.4-0.1,6.5-0.3c16.8-1.7,31.9-9.9,42.6-23c22-27,17.9-66.9-9.1-88.9
	c-13.1-10.7-29.5-15.6-46.3-13.9c-16.8,1.7-31.9,9.9-42.6,23c-10.7,13.1-15.6,29.5-13.9,46.3c0.2,1.9,0.5,3.9,0.9,5.8
	c-8.6-7.5-15.7-17.6-19.7-28.8c-10.2-28.9,0.8-59.6,31.1-86.7c15.7-14,39.3-20.7,64.9-18.4c33.4,3,64.7,20.1,85.9,47
	c47.5,60.4,31.7,104.1-6.5,151c-41.3,50.7-86.6,50.9-110,46.5c-27-5.1-50.7-20.8-63.7-41.1c4-0.2,8.1-0.6,12.2-1.1
	c12.9-1.8,32.7-6.6,53.8-19C358.5,458.2,363.1,458.8,367.8,458.8L367.8,458.8z M415.9,29.4c25.3-4.8,48.4-3.5,59.2-2.4
	c9.1,17.3,37.5,63.4,95.3,96.8c42.8,24.7,59.2,59.6,65.5,84.6c6,23.8,4.9,46.6,1.1,64.3c-2.6-2.4-5.4-4.7-8.3-6.8
	c-27.1-20-58.5-21.8-75-21.1c9.1-11.9,15.7-29.3,8.6-50.3c-13.7-40.7-50-49.1-92.1-58.8c-30.5-7-65-15-101-36.2
	c-13-7.6-25.4-12.8-37.3-16C348.9,54.9,377.1,36.7,415.9,29.4L415.9,29.4z M198.5,84.4c8.8-13.4,17.8-27.2,23-41.5
	c18.1-0.8,64.3,0.7,91.2,22.4c-2.9,4.5-5.6,9.1-8.1,14c-36.8-1.6-65.8,14.5-82.8,27.4c-6.9,5.2-13.4,11.1-19.4,17.4
	c-8.2,0.3-17.2,2.3-26.5,5.6C177.9,115.9,188,100.5,198.5,84.4L198.5,84.4z M53.8,245.7c7.3-6.8,30.5-27.9,58-48.7
	c29.6-22.3,51.1-34.3,66.4-40.6c-15,25.8-22.5,54-19,77.1c-52.7,37.5-97.6,112.6-86.8,192.7c2,14.6,5.7,26.6,10.4,36.9
	c-12.1-8.7-21.7-20-29.1-33.9C19.5,364.4,48.1,264.1,53.8,245.7L53.8,245.7z M53.2,521.1c-4.3-18.6-8.1-35.1-3-52.4
	c16,17.1,36.7,29.3,61.8,36.3c0.2,0.3,0.5,0.5,0.7,0.8c11.5,13.2,23.4,26.9,32.9,47.6c5.8,12.6,12.3,24.5,19.3,35.8
	c-0.2,0.3-0.3,0.6-0.5,0.9c-3.8,8.1-6.7,18.9-7.2,31.2c-44.1-6.2-85-31.4-100.2-42.3C61.9,558.6,57.5,539.6,53.2,521.1L53.2,521.1z
	 M533.3,718.2c-10.9,6.4-21.3,12.4-29.6,19.5c-33.5,28.5-69,40.9-100.1,34.8c-21.1-4.1-37.5-12.3-58.3-22.6
	c-18.1-8.9-38.5-19.1-67.8-29.9c-47-17.3-77.9-41.3-89.4-69.2c-5.7-13.8-5.8-26.1-4.4-35.1c8.8,11,18.1,21,28,29.7
	c26.2,23.3,55.2,37.4,83.8,40.9c4.6,0.6,9.2,0.8,13.8,0.8c14.5,0,28.5-2.8,41.7-8.3c0.2,0.2,0.3,0.3,0.5,0.5
	c20.3,19,47,32,73.1,35.8c5.5,0.8,11,1.2,16.4,1.2c26.3,0,50.7-9.4,71.5-27.7c27.5-24.1,54.3-36.7,80.2-48.9
	c1.8-0.9,3.6-1.7,5.4-2.6C595,682.2,563.7,700.5,533.3,718.2L533.3,718.2z M707.2,551.3c-11.6,13.7-27.6,32.6-39.1,39.8
	c13.2-14.1,25-32.4,34.8-57.1c7.4-18.7,7.7-37.8,4.4-57.5c0.9-1.3,1.6-2.8,2-4.5c1.9-8.4,9.1-26.7,18-47.5
	c21.8,21.3,35.8,61.6,35.7,74.4C743.5,508.4,725.1,530.2,707.2,551.3L707.2,551.3z"/>
</svg>
